<svg width="59" height="39" viewBox="0 0 59 39" fill="none" xmlns="http://www.w3.org/2000/svg">
<path d="M23.45 36.15C23.45 36.9833 23.3833 37.5667 23.25 37.9C23.15 38.2333 23 38.4167 22.8 38.45C22.6 38.4833 22.1667 38.5 21.5 38.5L20.65 38.45C20.0833 38.45 19.5667 38.4667 19.1 38.5C16.9667 38.5667 14 38.6 10.2 38.6C6.53333 38.6 3.56667 38.5833 1.3 38.55V37.55H0.3V36.15C0.533333 31.45 0.65 25.9167 0.65 19.55C0.65 12.4167 0.583333 6.4 0.45 1.5C0.883333 1.33333 1.48333 1.2 2.25 1.1C3.05 0.966664 3.85 0.899997 4.65 0.899997C6.65 0.899997 8.25 1.16666 9.45 1.7L9.4 2.35C9.56667 2.41666 9.73333 2.48333 9.9 2.55C10.0667 2.58333 10.25 2.63333 10.45 2.7C10.3833 5.1 10.35 7.08333 10.35 8.65C10.35 10.65 10.3833 13.65 10.45 17.65L10.5 26.5V28.5C15.0333 28.7667 18.3333 28.9 20.4 28.9C21.0333 28.9 21.7167 28.8667 22.45 28.8V29.9L23.45 29.8C23.45 30.5 23.4167 31.1833 23.35 31.85L23.3 32.9L23.35 33.4V33.45L23.45 36.15ZM21.8 31.95C21.8 31.6833 21.8333 31.25 21.9 30.65L21.95 29.4C21.8833 29.4333 21.6333 29.45 21.2 29.45C20.5667 29.45 18.9833 29.3833 16.45 29.25C15.85 29.2167 14.8833 29.1667 13.55 29.1C12.25 29.0333 11.2333 29 10.5 29C9.96667 29 9.46667 29.0333 9 29.1V29.05L9.05 25.15C9.05 23.3167 9.01667 20.4667 8.95 16.6C8.88333 12.8 8.85 9.93333 8.85 8C8.85 6.6 8.88333 4.6 8.95 2C8.01667 1.6 6.58333 1.4 4.65 1.4C3.88333 1.4 3.15 1.45 2.45 1.55C1.78333 1.61667 1.28333 1.71667 0.95 1.85C1.08333 8.48333 1.15 14.3833 1.15 19.55C1.15 25.9167 1.03333 31.45 0.8 36.15V37.05C1.76667 37.05 2.46667 37.0667 2.9 37.1L9.75 37.15C12.4167 37.15 15.3 37.1 18.4 37C18.8 36.9667 19.2667 36.95 19.8 36.95L20.9 37C21.3333 37 21.6167 36.9 21.75 36.7C21.8833 36.5 21.95 35.9833 21.95 35.15L21.85 32.45L21.8 31.95ZM32.0969 1.6H33.0969L33.1469 4.3C33.2135 6.23333 33.2469 7.68333 33.2469 8.65C32.8802 9.21667 32.0802 9.5 30.8469 9.5C30.5469 9.5 29.8969 9.46667 28.8969 9.4H28.9469L27.2469 9.35C26.5802 9.35 25.9969 9.36666 25.4969 9.4V8.35L24.4969 8.4C24.4969 7.76667 24.4635 6.81667 24.3969 5.55C24.3302 4.01667 24.2969 2.66667 24.2969 1.5V0.45L32.0969 0.599998V1.6ZM24.7969 1.75C24.7969 2.78333 24.8302 4 24.8969 5.4C24.9635 6.53333 24.9969 7.35 24.9969 7.85H25.8469C26.3469 7.85 27.0635 7.88333 27.9969 7.95L29.7969 8C30.8969 8 31.5469 7.83333 31.7469 7.5C31.7469 6.43333 31.7135 4.96666 31.6469 3.1C31.6135 2.5 31.5969 1.83333 31.5969 1.1L24.7969 0.949999V1.75ZM32.2969 12.45L33.2969 12.6C33.2969 14.5 33.2635 17.3833 33.1969 21.25C33.0969 24.15 33.0469 27.1167 33.0469 30.15C33.0469 33.1167 33.1135 35.6833 33.2469 37.85C32.9802 38.1167 32.6135 38.3 32.1469 38.4C31.6802 38.5 31.0802 38.55 30.3469 38.55C29.3802 38.55 28.6469 38.5333 28.1469 38.5H28.1969L26.9969 38.45C26.2635 38.45 25.6469 38.5333 25.1469 38.7C25.1469 38.4667 25.1802 38.05 25.2469 37.45C24.7469 37.5167 24.3802 37.6 24.1469 37.7C24.3135 35.4667 24.3969 33.1667 24.3969 30.8C24.3969 29.4667 24.3635 27.4667 24.2969 24.8C24.2302 22.1333 24.1969 20.1 24.1969 18.7C24.1969 16.3667 24.3135 13.9167 24.5469 11.35C24.7802 11.35 24.9469 11.3333 25.0469 11.3L25.8469 11.2C26.1135 11.2 26.6135 11.2333 27.3469 11.3C28.1135 11.3333 28.9302 11.35 29.7969 11.35H30.9469L32.2969 11.6V12.45ZM29.7969 11.85C28.6969 11.85 27.6469 11.8167 26.6469 11.75L25.1969 11.7H24.9969V11.75C24.7969 13.5167 24.6969 15.8 24.6969 18.6C24.6969 19.8667 24.7302 21.8667 24.7969 24.6C24.8635 27.3333 24.8969 29.4167 24.8969 30.85C24.8969 33.1167 24.8302 35.1667 24.6969 37C24.7635 36.9667 25.0302 36.95 25.4969 36.95C26.1969 36.95 26.7635 36.9667 27.1969 37L29.4469 37.05C30.1802 37.05 30.7135 37.0333 31.0469 37C31.4135 36.9667 31.6469 36.8667 31.7469 36.7C31.6135 34.3333 31.5469 31.65 31.5469 28.65C31.5469 25.3833 31.5969 22.15 31.6969 18.95C31.7635 15.8167 31.7969 13.5 31.7969 12V11.85H29.7969ZM44.3984 5.4C44.4651 6.46667 44.4984 7.38333 44.4984 8.15C44.4984 8.85 44.4818 9.43333 44.4484 9.9L44.3984 11.9C45.3984 11.5667 46.5984 11.4 47.9984 11.4C51.2984 11.4 53.7984 12.4333 55.4984 14.5C57.1984 16.5667 58.0484 19.65 58.0484 23.75C57.9484 26.65 57.6651 29.1333 57.1984 31.2C56.7318 33.2333 55.7984 34.95 54.3984 36.35C53.0318 37.7167 50.9984 38.4 48.2984 38.4C46.5651 38.4 45.2818 37.8 44.4484 36.6V37.55C44.4484 37.95 44.2818 38.2167 43.9484 38.35C43.6484 38.4833 43.1984 38.55 42.5984 38.55C41.2984 38.55 40.3151 38.5333 39.6484 38.5L36.6484 38.45L36.5984 37.45H35.6484C35.6151 36.15 35.5984 33.9667 35.5984 30.9C35.5984 28.3 35.6151 25.9833 35.6484 23.95C35.6818 21.9167 35.7151 20.1667 35.7484 18.7C35.8818 12.7667 35.9484 8.23333 35.9484 5.1V1.35C36.8151 1.18333 37.9484 1.1 39.3484 1.1C40.3151 1.1 41.1984 1.18333 41.9984 1.35C42.8318 1.51667 43.2484 1.68333 43.2484 1.85V2.4C43.9151 2.56666 44.2484 2.71666 44.2484 2.85V3.4L44.3984 5.4ZM42.7484 1.85C42.7484 1.78333 42.3818 1.73333 41.6484 1.7C40.9484 1.63333 40.1818 1.6 39.3484 1.6C38.1151 1.6 37.1484 1.66667 36.4484 1.8V5.1C36.4484 8.3 36.3818 12.9 36.2484 18.9C36.2151 20.3333 36.1818 22.1 36.1484 24.2C36.1151 26.3 36.0984 28.7167 36.0984 31.45C36.0984 33.95 36.1151 35.7833 36.1484 36.95C37.2151 36.95 38.0318 36.9667 38.5984 37L41.2984 37.05C42.3984 37.05 42.9484 36.8833 42.9484 36.55C42.9484 36.1833 42.9651 35.75 42.9984 35.25C43.0318 34.75 43.1318 34.5 43.2984 34.5C43.3318 34.5 43.3984 34.5667 43.4984 34.7C44.1984 36.1667 45.4318 36.9 47.1984 36.9C49.8651 36.9 51.8651 36.25 53.1984 34.95C54.5318 33.65 55.3984 32.0333 55.7984 30.1C56.1984 28.1667 56.4484 25.7167 56.5484 22.75C56.5484 20.2167 56.2151 18.0167 55.5484 16.15C54.9151 14.2833 53.8984 13.1 52.4984 12.6C51.3651 12.1333 49.8651 11.9 47.9984 11.9C46.6984 11.9 45.5318 12.0333 44.4984 12.3C43.4651 12.5667 42.9318 12.8833 42.8984 13.25C42.9318 12.2167 42.9484 10.95 42.9484 9.45V7.15C42.9484 5.78333 42.9151 4.78333 42.8484 4.15L42.7484 2.4V1.85ZM50.8484 24.15C50.8484 25.9167 50.4318 27.45 49.5984 28.75C48.7651 30.05 47.6651 30.7 46.2984 30.7C45.2318 30.7 44.4318 30.4167 43.8984 29.85C43.3984 29.25 43.0651 28.45 42.8984 27.45C42.7651 26.45 42.6984 25.1167 42.6984 23.45C42.6984 21.5833 42.7484 20.2833 42.8484 19.55C42.9818 18.8167 43.2484 18.3333 43.6484 18.1C44.0484 17.8333 44.7484 17.7 45.7484 17.7C48.5484 17.7 50.1318 18.8833 50.4984 21.25C50.7318 21.8833 50.8484 22.85 50.8484 24.15ZM49.9984 21.3C49.8318 20.4667 49.4984 19.9167 48.9984 19.65C48.4984 19.35 47.7484 19.2 46.7484 19.2C45.9151 19.2 45.3318 19.3167 44.9984 19.55C44.6651 19.7833 44.4484 20.2333 44.3484 20.9C44.2484 21.5667 44.1984 22.75 44.1984 24.45V26C44.1984 27.4 44.3151 28.45 44.5484 29.15C44.8151 29.85 45.3984 30.2 46.2984 30.2C47.5318 30.2 48.5151 29.6 49.2484 28.4C49.9818 27.2 50.3484 25.7833 50.3484 24.15C50.3484 24.05 50.3484 23.6833 50.3484 23.05C50.3484 22.4167 50.2484 21.8667 50.0484 21.4L49.9984 21.3Z" fill="#F5FAFF"/>
</svg>
